<?xml version="1.0" standalone="no"?>
<!DOCTYPE svg PUBLIC "-//W3C//DTD SVG 20010904//EN"
 "http://www.w3.org/TR/2001/REC-SVG-20010904/DTD/svg10.dtd">
<svg version="1.0" xmlns="http://www.w3.org/2000/svg"
 width="300.000000pt" height="205.000000pt" viewBox="0 0 300.000000 205.000000"
 preserveAspectRatio="xMidYMid meet">
<metadata>
Created by potrace 1.10, written by Peter Selinger 2001-2011
</metadata>
<g transform="translate(0.000000,205.000000) scale(0.100000,-0.100000)"
fill="#467594" stroke="none">
<path d="M1223 1898 l-133 -101 0 -253 0 -253 60 -27 60 -27 -2 -426 -3 -426
-27 -3 -28 -3 0 340 c0 296 -2 341 -15 341 -13 0 -15 -45 -15 -344 l0 -344
-30 -4 -30 -5 -2 365 c-2 282 -6 366 -15 370 -10 3 -13 -75 -13 -366 l0 -370
-22 -6 c-13 -3 -26 -6 -30 -6 -5 0 -8 173 -8 384 0 309 -3 386 -13 395 -8 6
-17 8 -20 4 -4 -3 -7 -183 -7 -400 0 -308 -3 -393 -12 -393 -7 0 -23 -3 -35
-6 l-23 -6 0 516 c0 284 -2 516 -4 516 -3 0 -57 -36 -120 -81 l-116 -81 -2
-465 -3 -464 -135 -50 c-110 -40 -424 -184 -355 -163 741 225 1591 264 2360
109 141 -28 356 -82 440 -110 41 -14 -104 62 -195 101 -98 43 -263 101 -362
129 l-58 16 0 478 c0 413 -2 480 -15 491 -13 11 -15 -43 -15 -475 l0 -487 -22
6 c-13 3 -29 6 -35 6 -10 0 -13 108 -15 492 -2 382 -6 492 -15 496 -10 3 -13
-99 -13 -488 0 -445 -2 -492 -16 -486 -9 3 -22 6 -30 6 -12 0 -14 77 -16 497
-2 386 -6 497 -15 501 -10 3 -13 -100 -13 -493 l0 -497 -31 6 c-17 3 -35 6
-40 6 -5 0 -9 262 -9 595 0 327 -3 595 -6 595 -3 0 -55 -35 -115 -77 l-109
-77 0 -504 0 -503 -47 3 -48 3 -5 634 c-4 495 -8 635 -17 639 -10 3 -13 -129
-13 -635 l0 -640 -30 5 -30 4 -2 646 c-2 505 -6 646 -15 650 -10 3 -13 -131
-13 -647 l0 -651 -30 0 -30 0 -2 662 c-2 516 -6 662 -15 665 -10 4 -13 -136
-15 -664 l-3 -668 -47 -3 -48 -3 0 805 c0 444 -3 806 -7 806 -5 0 -68 -46
-140 -102z"/>
</g>
</svg>
