<?xml version="1.0" encoding="UTF-8"?>
<svg version="1.1" xmlns="http://www.w3.org/2000/svg" width="500" height="500">
<path d="M0 0 C3.68623011 1.61272567 4.75355 2.630325 7 6 C8.1689842 12.1164368 8.44304081 17.70078886 5.05859375 23.09326172 C2.34129417 26.07337704 -0.48773945 28.76476342 -3.5 31.4375 C-4.49534124 32.37099763 -5.48755727 33.3078391 -6.4765625 34.24804688 C-10.65876849 38.19241833 -14.97029546 41.98726238 -19.3125 45.75390625 C-22.87725411 48.84747299 -26.20279572 52.12545389 -29.5 55.5 C-33.48521019 59.5353673 -37.51519149 63.39423007 -41.84375 67.0625 C-44.84614704 69.76030603 -47.66260582 72.63044038 -50.5 75.5 C-53.89006118 78.92844828 -57.25193982 82.3226072 -60.9375 85.4375 C-64.84269956 88.74572637 -68.40281168 92.36513493 -72 96 C-76.16646694 100.21010629 -80.35285402 104.2724121 -84.87890625 108.09765625 C-87.87139221 110.78152487 -90.67433259 113.64234089 -93.5 116.5 C-96.89006381 119.92844551 -100.25193957 123.32260699 -103.9375 126.4375 C-107.84269956 129.74572637 -111.40281168 133.36513493 -115 137 C-119.16646694 141.21010629 -123.35285402 145.2724121 -127.87890625 149.09765625 C-130.87139221 151.78152487 -133.67433259 154.64234089 -136.5 157.5 C-139.89006381 160.92844551 -143.25193957 164.32260699 -146.9375 167.4375 C-150.84269956 170.74572637 -154.40281168 174.36513493 -158 178 C-162.16646694 182.21010629 -166.35285402 186.2724121 -170.87890625 190.09765625 C-173.87139221 192.78152487 -176.67433259 195.64234089 -179.5 198.5 C-182.89006381 201.92844551 -186.25193957 205.32260699 -189.9375 208.4375 C-193.84269956 211.74572637 -197.40281168 215.36513493 -201 219 C-205.16714472 223.21079117 -209.35180822 227.27644449 -213.8828125 231.09765625 C-216.86167014 233.77423129 -219.63106295 236.6447275 -222.4375 239.5 C-234.85951253 252.02536596 -234.85951253 252.02536596 -241.625 254.125 C-248.80984477 253.85889464 -252.49005313 250.88613552 -257.20703125 245.8671875 C-258.93253045 244.07026241 -260.72116588 242.47948913 -262.625 240.875 C-266.43944504 237.59487411 -269.96562877 234.07474674 -273.5 230.5 C-276.89004536 227.07153508 -280.25194135 223.67739151 -283.9375 220.5625 C-287.84269979 217.25427342 -291.40280926 213.63486259 -295 210 C-300.34465194 204.58505132 -300.34465194 204.58505132 -306 199.5 C-310.55937735 195.64811224 -314.67246864 191.35187792 -318.8671875 187.11328125 C-321.82940843 184.13199023 -324.78707598 181.21436684 -328 178.5 C-332.55937735 174.64811224 -336.67246864 170.35187792 -340.8671875 166.11328125 C-343.82940843 163.13199023 -346.78707598 160.21436684 -350 157.5 C-354.55937735 153.64811224 -358.67246864 149.35187792 -362.8671875 145.11328125 C-365.82940843 142.13199023 -368.78707598 139.21436684 -372 136.5 C-376.55858949 132.64877784 -380.67102171 128.35336869 -384.86499023 124.11547852 C-388.41457818 120.54301767 -392.03157879 117.15395599 -395.87890625 113.90234375 C-399.47814366 110.67429841 -402.82668211 107.1922629 -406.22509766 103.75537109 C-409.0475639 100.913276 -411.87583732 98.15009878 -414.9375 95.5625 C-418.84269979 92.25427342 -422.40280926 88.63486259 -426 85 C-431.34465194 79.58505132 -431.34465194 79.58505132 -437 74.5 C-441.55937735 70.64811224 -445.67246864 66.35187792 -449.8671875 62.11328125 C-452.82940843 59.13199023 -455.78707598 56.21436684 -459 53.5 C-463.55255278 49.65387783 -467.66165504 45.36584762 -471.84741211 41.13085938 C-474.99254182 37.96233157 -478.15820224 34.89397609 -481.5625 32 C-490.01351943 24.7096356 -490.01351943 24.7096356 -491 18.5 C-491.31537953 12.98085825 -489.52359062 9.75443768 -485.9375 5.625 C-481.72965812 3.29725768 -477.71214761 3.1827369 -473 4 C-468.37434919 6.17457898 -465.1829359 9.62281623 -461.6875 13.25 C-456.50413019 18.54437513 -456.50413019 18.54437513 -451 23.5 C-447.29621434 26.63880141 -443.91070855 30.05062676 -440.5 33.5 C-437.10993882 36.92844828 -433.74806018 40.3226072 -430.0625 43.4375 C-425.48648238 47.313999 -421.35013799 51.6252468 -417.13525391 55.88427734 C-413.58558242 59.45681919 -409.96851023 62.84596877 -406.12109375 66.09765625 C-402.52262539 69.32501185 -399.1747647 72.80624973 -395.77709961 76.24243164 C-392.93342314 79.10590456 -390.08116073 81.88884684 -387 84.5 C-383.29621434 87.63880141 -379.91070855 91.05062676 -376.5 94.5 C-373.10993882 97.92844828 -369.74806018 101.3226072 -366.0625 104.4375 C-361.48648238 108.313999 -357.35013799 112.6252468 -353.13525391 116.88427734 C-349.58558242 120.45681919 -345.96851023 123.84596877 -342.12109375 127.09765625 C-338.52262539 130.32501185 -335.1747647 133.80624973 -331.77709961 137.24243164 C-328.93342314 140.10590456 -326.08116073 142.88884684 -323 145.5 C-319.29621434 148.63880141 -315.91070855 152.05062676 -312.5 155.5 C-309.10993882 158.92844828 -305.74806018 162.3226072 -302.0625 165.4375 C-297.48648238 169.313999 -293.35013799 173.6252468 -289.13525391 177.88427734 C-285.58558242 181.45681919 -281.96851023 184.84596877 -278.12109375 188.09765625 C-274.5241635 191.32363237 -271.17765814 194.80327485 -267.78149414 198.23803711 C-264.32934463 201.71426788 -260.79301289 204.99921654 -257.0546875 208.16796875 C-252.50082533 212.22835156 -248.27715589 216.65208234 -244 221 C-239.13937695 216.88093354 -234.4013937 212.66589184 -229.75 208.3125 C-229.0995874 207.705271 -228.4491748 207.09804199 -227.77905273 206.47241211 C-222.87606334 201.87318506 -218.12416422 197.14834796 -213.3984375 192.3671875 C-211.38469022 190.37967797 -209.34357107 188.5160666 -207.1875 186.6875 C-203.24598475 183.33111691 -199.63862238 179.67681813 -196 176 C-191.85492391 171.81154836 -187.69083632 167.77329275 -183.1875 163.96875 C-180.00179249 161.10161324 -177.01415242 158.04568121 -174 155 C-169.85491669 150.81155808 -165.69083641 146.77329283 -161.1875 142.96875 C-158.00179249 140.10161324 -155.01415242 137.04568121 -152 134 C-147.85491669 129.81155808 -143.69083641 125.77329283 -139.1875 121.96875 C-136.00179249 119.10161324 -133.01415242 116.04568121 -130 113 C-125.85491669 108.81155808 -121.69083641 104.77329283 -117.1875 100.96875 C-114.00179249 98.10161324 -111.01415242 95.04568121 -108 92 C-103.85491669 87.81155808 -99.69083641 83.77329283 -95.1875 79.96875 C-91.34703363 76.51233027 -87.76845378 72.78697405 -84.13500977 69.11547852 C-80.58542182 65.54301767 -76.96842121 62.15395599 -73.12109375 58.90234375 C-70.12860779 56.21847513 -67.32566741 53.35765911 -64.5 50.5 C-61.10993619 47.07155449 -57.74806043 43.67739301 -54.0625 40.5625 C-50.15730044 37.25427363 -46.59718832 33.63486507 -43 30 C-38.83815721 25.79456629 -34.6612164 21.73084562 -30.1328125 17.91796875 C-26.47396385 14.62768544 -23.06778708 11.07143657 -19.65405273 7.52905273 C-13.51508857 1.25547447 -8.89593733 -1.09736069 0 0 Z " fill="#000000" transform="translate(493,125)"/>
</svg>
