<?xml version="1.0" standalone="no"?>
<!DOCTYPE svg PUBLIC "-//W3C//DTD SVG 20010904//EN"
 "http://www.w3.org/TR/2001/REC-SVG-20010904/DTD/svg10.dtd">
<svg version="1.0" xmlns="http://www.w3.org/2000/svg"
 width="450.000000pt" height="450.000000pt" viewBox="0 0 450.000000 450.000000"
 preserveAspectRatio="xMidYMid meet">
<metadata>
Created by potrace 1.10, written by Peter Selinger 2001-2011
</metadata>
<g transform="translate(0.000000,450.000000) scale(0.100000,-0.100000)"
fill="#ffffff" stroke="none">
<path d="M2089 3810 c-583 -67 -1096 -479 -1279 -1027 -22 -67 -44 -153 -47
-190 -6 -67 -6 -67 13 -49 10 11 37 27 59 37 23 10 49 27 59 38 22 25 79 45
104 37 10 -3 35 3 57 14 42 21 117 26 158 11 23 -9 25 -7 36 47 34 155 142
346 265 468 217 216 503 327 796 310 262 -15 501 -123 685 -310 135 -136 216
-275 257 -439 17 -72 24 -87 37 -81 9 4 39 9 68 11 40 4 62 0 97 -17 25 -12
50 -19 55 -15 18 10 86 -14 110 -39 13 -14 37 -28 54 -32 17 -3 44 -20 59 -36
33 -35 32 -36 13 74 -36 206 -145 433 -303 629 -222 275 -573 483 -919 544
-108 19 -331 27 -434 15z"/>
<path d="M1733 3236 c-39 -18 -63 -62 -63 -115 0 -30 7 -46 30 -69 54 -54 135
-46 178 18 63 93 -41 212 -145 166z"/>
<path d="M2685 3161 c-11 -5 -29 -18 -39 -30 -11 -11 -30 -21 -43 -21 -25 0
-93 -25 -93 -34 0 -4 98 -6 218 -6 191 1 214 2 192 15 -14 7 -43 17 -65 21
-22 3 -55 19 -73 35 -33 29 -60 35 -97 20z"/>
<path d="M2160 2680 l0 -430 -25 0 -25 0 0 229 0 230 -22 3 c-19 2 -24 10 -26
46 l-3 43 -62 -3 -62 -3 -3 -42 c-3 -35 -7 -43 -23 -43 -18 0 -19 -9 -19 -230
0 -223 -1 -230 -20 -230 -19 0 -20 7 -20 230 l0 230 -45 0 -45 0 -2 -207 -3
-208 -2 178 -3 177 -25 0 -25 0 -1 -122 c-1 -113 -2 -120 -14 -93 -9 18 -14
66 -15 119 l0 89 -80 -6 -80 -5 0 45 0 46 -31 -7 c-17 -3 -38 -6 -45 -6 -10 0
-14 -14 -14 -48 0 -42 3 -50 30 -65 33 -20 75 -85 85 -133 5 -24 13 -33 34
-37 55 -11 121 -86 121 -137 0 -11 10 -34 21 -50 29 -39 36 -114 15 -164 -9
-21 -16 -40 -16 -42 0 -6 1086 -5 1092 2 3 3 -1 19 -10 37 -21 42 -19 117 4
156 10 17 22 31 26 31 4 0 8 14 8 32 0 17 10 46 22 64 24 34 84 74 112 74 11
0 16 9 16 26 0 37 28 90 61 118 28 24 29 28 29 114 l0 89 -37 7 c-64 10 -63
11 -63 -59 l0 -65 -45 0 -45 0 0 -92 c-1 -57 -6 -105 -15 -123 -12 -27 -13 -5
-14 186 -1 237 1 229 -62 229 -22 0 -29 5 -29 20 0 18 -7 20 -80 20 l-80 0 0
-325 c0 -284 -2 -326 -15 -332 -9 -3 -19 -2 -23 2 -4 3 -8 93 -10 198 -3 154
-6 193 -18 200 -8 4 -14 22 -14 40 0 18 -3 49 -6 70 -6 35 -8 37 -45 37 -35 0
-39 -3 -39 -25 0 -14 -4 -25 -10 -25 -5 0 -10 -22 -10 -50 0 -38 -4 -50 -15
-50 -13 0 -15 -28 -15 -195 0 -156 -3 -195 -13 -195 -11 0 -15 52 -20 257 -4
141 -7 334 -7 430 l0 173 -90 0 -90 0 0 -430z m560 120 c0 -5 -9 -10 -20 -10
-11 0 -20 5 -20 10 0 6 9 10 20 10 11 0 20 -4 20 -10z m0 -70 c0 -5 -9 -10
-20 -10 -11 0 -20 5 -20 10 0 6 9 10 20 10 11 0 20 -4 20 -10z m0 -70 c0 -5
-9 -10 -21 -10 -11 0 -17 5 -14 10 3 6 13 10 21 10 8 0 14 -4 14 -10z m-710
-30 c0 -5 -7 -10 -15 -10 -8 0 -15 5 -15 10 0 6 7 10 15 10 8 0 15 -4 15 -10z
m710 -50 c0 -5 -9 -10 -20 -10 -11 0 -20 5 -20 10 0 6 9 10 20 10 11 0 20 -4
20 -10z m-710 -30 c0 -5 -7 -10 -15 -10 -8 0 -15 5 -15 10 0 6 7 10 15 10 8 0
15 -4 15 -10z m474 -31 c-3 -5 -10 -7 -15 -3 -5 3 -7 10 -3 15 3 5 10 7 15 3
5 -3 7 -10 3 -15z m236 -9 c0 -5 -7 -10 -15 -10 -8 0 -15 5 -15 10 0 6 7 10
15 10 8 0 15 -4 15 -10z m-710 -20 c0 -5 -7 -10 -15 -10 -8 0 -15 5 -15 10 0
6 7 10 15 10 8 0 15 -4 15 -10z m480 -24 c0 -11 -19 -15 -25 -6 -3 5 1 10 9
10 9 0 16 -2 16 -4z m-480 -34 c0 -13 -12 -22 -22 -16 -10 6 -1 24 13 24 5 0
9 -4 9 -8z m697 -19 c-4 -3 -7 0 -7 7 0 7 3 10 7 7 3 -4 3 -10 0 -14z m-697
-83 c0 -5 -7 -10 -15 -10 -8 0 -15 5 -15 10 0 6 7 10 15 10 8 0 15 -4 15 -10z
m457 -117 c-2 -16 -4 -3 -4 27 0 30 2 43 4 28 2 -16 2 -40 0 -55z m-462 27 c3
-5 -1 -10 -10 -10 -9 0 -13 5 -10 10 3 6 8 10 10 10 2 0 7 -4 10 -10z"/>
<path d="M2925 2945 c-28 -13 -25 -14 55 -14 83 0 84 0 51 14 -40 18 -66 18
-106 0z"/>
<path d="M1486 2885 c-13 -14 -32 -25 -42 -25 -11 -1 -32 -7 -49 -15 -27 -12
-11 -13 150 -13 161 0 177 1 150 13 -16 8 -40 14 -52 15 -12 0 -33 11 -47 25
-16 16 -36 25 -56 25 -20 0 -39 -9 -54 -25z"/>
<path d="M1085 2603 c-22 -8 -58 -16 -81 -18 -50 -3 -81 -19 -89 -45 -4 -13
-15 -20 -30 -20 -37 0 -82 -45 -99 -98 -12 -41 -15 -44 -21 -24 -10 32 -41 28
-81 -12 -28 -28 -34 -41 -34 -78 0 -24 6 -53 14 -63 13 -18 11 -23 -15 -53
-38 -43 -38 -81 1 -125 17 -20 30 -46 30 -61 0 -62 55 -116 118 -116 16 0 46
11 66 25 l36 25 60 -81 60 -81 0 -113 0 -113 -80 17 -80 18 31 -56 c118 -209
315 -425 502 -550 305 -202 635 -289 986 -261 507 41 944 320 1225 780 27 44
47 83 44 85 -3 3 -34 -1 -69 -10 -35 -8 -70 -15 -76 -15 -10 0 -13 28 -13 109
l0 109 60 81 c33 44 63 81 66 81 4 0 19 -11 36 -25 67 -57 178 -5 178 83 0 24
9 45 30 69 42 47 37 106 -10 140 -17 12 -17 15 2 52 17 34 18 46 8 75 -20 63
-110 116 -110 66 0 -36 -17 -21 -29 24 -12 50 -59 96 -97 96 -13 0 -24 5 -24
10 0 25 -41 50 -82 50 -24 1 -54 7 -68 15 -33 19 -123 19 -160 0 -15 -8 -42
-32 -60 -52 -28 -35 -30 -36 -20 -10 13 38 14 37 -15 37 -39 0 -89 -25 -113
-55 -30 -38 -28 -53 6 -47 l27 5 -29 -23 c-16 -13 -35 -38 -42 -57 -12 -28
-19 -33 -48 -33 -47 0 -93 -40 -102 -88 -4 -20 -15 -48 -25 -62 -29 -41 -29
-96 1 -128 19 -20 20 -26 9 -61 -10 -33 -9 -45 7 -78 25 -51 81 -79 126 -64
27 10 35 8 53 -9 47 -44 110 -44 152 0 33 35 33 35 115 -68 l58 -73 0 -99 0
-99 -42 -11 c-24 -6 -82 -22 -130 -36 l-87 -24 -53 33 c-67 43 -188 80 -188
58 0 -4 26 -28 58 -52 104 -80 167 -151 191 -213 36 -97 27 -107 -28 -30 -61
87 -137 159 -198 186 -51 22 -180 31 -236 15 l-29 -8 50 -39 c27 -22 52 -46
55 -54 3 -8 30 -30 59 -49 84 -54 111 -92 133 -192 5 -24 -2 -17 -33 31 -68
105 -153 155 -261 153 -78 -1 -87 -11 -36 -38 25 -13 43 -26 40 -29 -2 -3 -35
-19 -72 -36 -130 -61 -157 -77 -142 -87 9 -6 -9 -6 -46 -2 -33 5 -127 8 -210
7 -206 -1 -346 -32 -517 -116 -98 -49 -103 -46 -17 13 153 104 282 141 494
143 83 0 164 -2 180 -7 l30 -7 -25 14 c-50 28 -288 119 -460 176 -159 53 -380
111 -642 170 l-98 22 0 108 0 108 65 81 c36 45 69 81 73 81 4 0 13 -9 20 -21
31 -48 118 -54 165 -11 17 15 28 17 51 11 34 -9 81 7 109 39 23 25 33 92 18
119 -8 16 -7 24 9 38 30 27 36 82 15 122 -10 18 -22 33 -27 33 -4 0 -8 16 -8
36 0 51 -44 94 -98 94 -39 0 -39 1 -45 41 -3 22 -12 48 -21 58 -9 10 -16 24
-16 32 0 28 -56 70 -100 76 l-42 6 6 -34 7 -34 -21 32 c-44 66 -132 94 -205
66z m18 -81 c28 -25 19 -32 -20 -16 -20 9 -52 14 -70 12 -42 -5 -42 -1 0 17
35 15 62 11 90 -13z m2452 -32 c10 -11 16 -22 14 -24 -9 -7 -70 25 -64 34 10
16 30 12 50 -10z m-2201 -51 c16 -13 26 -30 26 -47 l0 -26 -16 23 c-9 13 -33
30 -53 38 -32 14 -34 17 -16 24 29 11 30 11 59 -12z m-131 -60 c20 -21 27 -39
27 -67 l-1 -37 -19 37 c-22 42 -62 76 -99 85 -23 6 -24 7 -6 14 31 13 68 1 98
-32z m2012 2 c-45 -21 -79 -54 -94 -91 -9 -24 -10 -23 -10 12 -1 25 7 46 25
67 22 27 32 31 72 31 l47 0 -40 -19z m-2197 -43 c21 -21 13 -26 -23 -16 -19 6
-32 15 -29 20 8 12 38 10 52 -4z m2446 4 c3 -4 -8 -13 -25 -19 -22 -9 -29 -8
-29 1 0 7 3 16 7 19 9 10 41 9 47 -1z m-1989 -36 c16 -16 22 -31 18 -45 -5
-21 -6 -21 -24 8 -10 16 -27 32 -38 36 -12 3 -19 11 -16 16 10 16 35 10 60
-15z m2120 -76 c4 -6 -6 -10 -22 -10 -32 0 -91 -33 -99 -55 -9 -24 -23 -17
-17 8 11 42 43 67 89 67 24 0 46 -4 49 -10z m-2566 -17 c11 -10 24 -34 27 -53
l6 -35 -27 33 c-15 18 -43 41 -63 52 l-37 19 36 1 c21 0 46 -8 58 -17z m1936
-29 c-14 -20 -25 -44 -25 -53 -1 -13 -2 -13 -11 3 -19 31 8 71 58 85 1 1 -9
-15 -22 -35z m335 21 c11 -13 7 -15 -24 -15 -21 0 -46 -5 -57 -10 -23 -13 -25
-3 -2 22 20 22 66 24 83 3z m-1747 -68 c6 -16 -8 -44 -15 -31 -15 27 -16 44
-4 44 8 0 16 -6 19 -13z m-315 -35 c2 -8 -11 -12 -37 -12 -43 0 -53 12 -24 28
19 11 55 1 61 -16z m163 8 c31 -17 22 -30 -23 -30 -40 0 -41 0 -23 20 21 23
20 23 46 10z m-494 -15 c12 -8 24 -29 28 -46 9 -40 42 -55 85 -40 25 8 31 8
27 -2 -2 -7 -10 -39 -17 -71 -6 -32 -15 -54 -19 -50 -40 46 -80 105 -91 132
-7 18 -26 43 -41 57 -16 13 -29 26 -29 29 0 12 36 6 57 -9z m2281 -2 c2 -9 -8
-13 -32 -13 -34 0 -44 8 -29 24 11 11 56 2 61 -11z m482 -3 c0 -5 -6 -10 -14
-10 -7 0 -25 -12 -40 -26 l-26 -27 0 25 c0 13 5 29 12 36 14 14 68 16 68 2z
m-206 -81 c18 -8 33 -9 55 -1 23 8 31 8 31 0 0 -13 -79 -118 -89 -118 -4 0
-14 29 -23 65 -16 68 -14 72 26 54z m-2282 -33 c32 1 31 1 -32 -80 -39 -49
-45 -54 -48 -35 -2 13 -1 47 3 76 6 50 8 53 28 46 12 -4 34 -7 49 -7z m2183
-21 c2 -11 7 -42 10 -70 6 -44 5 -48 -8 -35 -24 24 -97 114 -97 120 0 3 20 5
45 5 38 1 46 -3 50 -20z m-424 -656 c34 -34 52 -61 63 -100 25 -82 19 -87 -22
-23 -21 32 -47 66 -56 74 -10 8 -36 41 -58 73 l-41 60 34 -19 c18 -11 55 -40
80 -65z m-194 -105 c36 -21 83 -77 83 -99 0 -4 -16 7 -35 24 -20 17 -39 31
-43 31 -4 1 -29 21 -57 46 -44 39 -47 43 -20 34 17 -6 49 -22 72 -36z m28 -90
c20 -11 46 -35 58 -54 l22 -35 -25 17 c-50 36 -119 68 -160 74 -29 5 -38 10
-28 16 19 13 91 3 133 -18z"/>
<path d="M1706 1958 c-3 -13 -6 -26 -6 -30 0 -5 250 -8 556 -8 l556 0 -6 23
c-3 12 -6 25 -6 30 0 4 -245 7 -544 7 l-544 0 -6 -22z"/>
<path d="M1650 1845 l-23 -25 634 0 634 0 -30 25 -30 24 -581 1 -581 0 -23
-25z"/>
<path d="M1425 1757 c-11 -6 -60 -14 -110 -18 -49 -3 374 -6 940 -6 567 0 992
3 945 7 -47 4 -98 12 -113 18 -41 17 -1634 16 -1662 -1z"/>
<path d="M1715 1620 c4 -6 195 -10 541 -10 349 0 534 3 534 10 0 7 -187 10
-541 10 -357 0 -538 -3 -534 -10z"/>
<path d="M2998 1623 c23 -2 61 -2 85 0 23 2 4 4 -43 4 -47 0 -66 -2 -42 -4z"/>
<path d="M1365 1591 c-22 -10 -48 -27 -58 -38 -17 -20 -17 -21 14 -27 28 -5
36 -1 73 39 46 49 38 57 -29 26z"/>
<path d="M1455 1581 c-41 -19 -83 -57 -73 -66 3 -3 22 -8 42 -12 29 -4 37 -2
42 13 4 11 18 34 31 52 28 37 17 40 -42 13z"/>
<path d="M1557 1565 c-38 -13 -87 -51 -87 -66 0 -4 14 -11 32 -14 25 -6 35 -4
43 10 5 10 23 33 39 52 31 37 29 38 -27 18z"/>
<path d="M1701 1544 c-20 -25 -38 -90 -29 -100 3 -2 43 -15 89 -29 46 -14 92
-28 102 -31 14 -4 17 1 17 30 0 42 -5 44 -31 14 l-20 -23 3 48 3 49 -29 -33
-29 -33 5 52 c4 46 3 50 -10 40 -8 -7 -24 -26 -35 -43 l-19 -30 5 58 c3 31 4
57 2 57 -2 0 -13 -12 -24 -26z"/>
<path d="M1608 1529 c-21 -11 -42 -28 -47 -38 -9 -16 -6 -20 15 -25 15 -4 27
-6 28 -4 15 22 46 81 44 83 -2 2 -20 -5 -40 -16z"/>
<path d="M2010 1510 c32 -10 505 -10 545 0 17 4 -105 8 -270 8 -165 0 -289 -4
-275 -8z"/>
<path d="M2115 1400 c28 -5 104 -8 170 -8 66 0 143 3 170 8 32 5 -29 7 -170 7
-141 0 -202 -2 -170 -7z"/>
<path d="M2323 1283 c9 -2 25 -2 35 0 9 3 1 5 -18 5 -19 0 -27 -2 -17 -5z"/>
</g>
</svg>
