<svg xmlns="http://www.w3.org/2000/svg" version="1.0" preserveAspectRatio="xMidYMid meet" viewBox="0 20 450 134">  <g transform="translate(0.000000,178.000000) scale(0.100000,-0.100000)" fill="#7dabca" stroke="none"> <path d="M1960 1565 c-7 -8 -21 -15 -31 -15 -18 0 -19 -10 -19 -150 l0 -150 -25 0 -25 0 0 -320 0 -320 -25 0 -25 0 0 144 c0 142 0 145 -22 148 -21 3 -23 9 -26 71 l-3 67 -84 0 -85 0 0 -70 0 -70 -75 0 -75 0 0 -95 0 -95 -105 0 -105 0 0 75 0 75 -55 0 -55 0 0 -75 0 -75 -50 0 -50 0 0 -45 0 -45 -40 0 c-39 0 -40 -1 -41 -37 -2 -91 -1 -88 -39 -88 l-35 0 -3 148 c-2 122 -5 147 -17 147 -8 0 -15 7 -15 15 0 12 -13 15 -60 15 -45 0 -60 -4 -60 -14 0 -8 -7 -16 -15 -20 -13 -4 -15 -37 -15 -211 l0 -205 -25 0 -25 0 0 105 c0 97 -1 105 -19 105 -15 0 -21 8 -23 33 l-3 32 -157 3 -157 3 -3 -38 -3 -38 -87 -3 -88 -3 0 -59 0 -60 -45 0 -45 0 0 -105 0 -105 2250 0 2250 0 0 145 0 145 -75 0 c-73 0 -75 -1 -75 -25 0 -24 -3 -25 -60 -25 l-59 0 -3 92 -3 93 -117 3 -118 3 0 179 0 180 -105 0 c-87 0 -105 -3 -105 -15 0 -10 -10 -15 -30 -15 l-30 0 0 -95 0 -95 -85 0 -85 0 0 -170 0 -171 -57 3 -58 3 -3 82 c-2 74 -5 83 -22 83 -18 0 -19 11 -22 203 l-3 202 -32 66 c-18 37 -33 78 -33 92 0 23 -36 117 -45 117 -12 0 -55 -103 -55 -131 0 -18 -6 -40 -13 -48 -26 -31 -57 -133 -57 -187 l0 -54 -155 0 -155 0 0 -80 c0 -79 0 -80 -25 -80 l-25 0 -2 273 -3 272 -115 0 -115 0 -3 -137 -3 -138 -99 0 -100 0 0 -135 0 -135 -55 0 -55 0 0 40 c0 36 -2 40 -25 40 l-25 0 0 365 c0 350 -1 365 -19 365 -10 0 -24 7 -31 15 -9 11 -33 15 -90 15 -57 0 -81 -4 -90 -15z"/> </g> </svg>