<svg xmlns="http://www.w3.org/2000/svg" version="1.0" preserveAspectRatio="xMidYMid meet" viewBox="-0.1 3.06 450.2 80.94">  <g transform="translate(0.000000,254.000000) scale(0.100000,-0.100000)" fill="#253010" stroke="none"> <path d="M1055 2488 c-4 -13 -6 -31 -5 -42 1 -12 -2 -16 -12 -11 -10 6 -11 5 0 -6 17 -18 15 -29 -5 -29 -16 -1 -16 -2 1 -15 16 -12 17 -15 3 -20 -9 -4 -14 -16 -12 -31 1 -16 -3 -24 -13 -24 -12 0 -12 -3 -2 -15 10 -12 9 -15 -4 -15 -15 0 -15 -2 0 -25 19 -29 12 -44 -11 -25 -9 7 -17 11 -20 9 -5 -6 -16 -101 -18 -152 0 -27 -4 -36 -14 -33 -9 4 -12 -4 -8 -30 2 -20 0 -32 -5 -29 -6 3 -7 0 -4 -8 3 -9 -3 -16 -15 -20 -17 -4 -19 -1 -14 29 5 27 2 34 -11 34 -13 0 -15 4 -7 18 5 10 6 24 1 33 -5 8 -11 44 -14 79 -8 95 -24 99 -31 7 -2 -31 -8 -64 -13 -74 -5 -10 -7 -24 -5 -30 3 -7 0 -13 -5 -13 -6 0 -9 -17 -7 -39 3 -32 1 -39 -11 -34 -8 3 -13 11 -10 18 3 8 -1 16 -9 19 -8 3 -14 13 -14 23 -2 56 -9 114 -14 120 -10 9 -18 -1 -20 -26 -1 -11 -5 -21 -10 -21 -5 0 -4 -7 3 -15 9 -11 9 -15 1 -15 -7 0 -11 -8 -10 -17 3 -33 -1 -44 -12 -37 -8 5 -8 1 0 -14 15 -28 15 -27 -19 -28 -24 -1 -28 1 -19 12 9 11 8 14 -5 14 -17 0 -21 12 -9 24 15 15 9 46 -9 46 -21 0 -22 4 -8 31 6 10 7 19 2 19 -4 0 -8 8 -9 18 -1 22 -11 87 -13 87 -1 0 -3 14 -5 30 -1 17 -3 37 -4 45 -1 9 -4 11 -11 4 -9 -9 -21 -84 -21 -136 0 -9 -7 -19 -15 -22 -10 -4 -13 -13 -9 -26 5 -14 2 -20 -10 -20 -9 0 -13 -4 -10 -10 3 -5 1 -10 -5 -10 -7 0 -9 8 -5 19 3 10 0 25 -7 32 -15 16 -18 33 -22 104 -2 28 -8 61 -13 75 l-10 25 -7 -30 c-9 -44 -18 -107 -17 -128 0 -9 -4 -15 -9 -12 -6 3 -7 -1 -4 -9 3 -9 1 -16 -5 -16 -7 0 -5 -10 5 -26 17 -25 17 -25 -7 -19 -21 5 -25 3 -24 -17 1 -13 4 -29 8 -35 4 -7 3 -14 -2 -17 -5 -4 -11 0 -14 6 -2 7 -8 10 -12 5 -5 -4 -3 -13 3 -19 18 -18 15 -23 -18 -24 -32 -1 -37 5 -18 24 9 9 9 12 -1 12 -11 0 -11 3 -1 15 7 8 9 16 4 17 -5 0 -13 2 -19 3 -5 2 -14 3 -19 4 -4 0 -1 12 8 26 11 16 12 24 4 23 -7 -2 -13 11 -15 32 -2 19 -5 43 -6 53 -1 9 -5 17 -9 17 -4 0 -6 8 -6 18 1 9 -2 35 -7 57 l-8 40 -9 -30 c-5 -16 -11 -48 -13 -70 -8 -80 -19 -110 -38 -98 -12 7 -8 -12 5 -25 9 -9 7 -12 -10 -12 -23 0 -30 -14 -12 -25 6 -3 10 -11 10 -16 0 -6 -4 -7 -10 -4 -14 9 -12 -19 2 -34 11 -10 5 -11 -25 -8 -36 4 -78 27 -49 27 7 0 12 5 12 11 0 5 -4 8 -9 5 -9 -6 -26 22 -22 38 1 4 -3 14 -10 22 -6 7 -8 18 -4 25 4 6 1 16 -6 21 -11 7 -11 11 -2 15 10 3 9 11 -2 33 -8 16 -15 37 -15 47 0 13 -5 9 -15 -11 -8 -15 -15 -39 -15 -53 0 -13 -4 -21 -10 -18 -5 3 -10 2 -10 -4 0 -5 6 -12 13 -15 9 -3 8 -8 -4 -15 -15 -9 -17 -39 -18 -231 l-2 -220 2251 0 2251 0 -2 138 c-1 75 -6 140 -11 143 -9 6 -18 46 -23 99 -6 67 -5 66 -14 50 -11 -18 -23 -93 -24 -138 0 -25 -4 -32 -15 -27 -11 4 -13 -1 -9 -24 5 -26 4 -29 -11 -24 -15 6 -15 5 -3 -10 12 -15 11 -17 -13 -17 -23 0 -25 2 -16 25 8 21 7 25 -10 25 -23 0 -26 10 -8 28 7 7 8 12 2 12 -6 0 -11 6 -12 13 -2 31 -13 104 -19 121 -5 18 -6 18 -15 2 -5 -9 -11 -37 -13 -62 -2 -25 -8 -51 -14 -58 -6 -7 -8 -16 -4 -19 3 -4 -1 -9 -9 -12 -9 -4 -14 -17 -13 -35 1 -17 -2 -30 -6 -30 -4 0 -6 -9 -4 -20 2 -11 0 -20 -6 -20 -8 0 -11 8 -8 26 0 4 -5 10 -12 15 -7 4 -14 15 -15 25 -2 9 -6 20 -11 23 -8 6 -11 17 -18 51 -1 8 -6 33 -9 54 -6 29 -10 36 -17 25 -5 -8 -9 -24 -9 -37 0 -16 -4 -21 -12 -16 -9 5 -9 2 1 -9 7 -9 9 -17 4 -17 -13 0 -33 -59 -22 -66 5 -3 7 -10 4 -15 -9 -14 -45 9 -39 25 4 11 -1 13 -18 9 -18 -4 -20 -3 -8 6 13 9 12 11 -4 11 -16 0 -17 3 -8 12 17 17 15 29 -3 22 -16 -6 -21 11 -7 20 5 3 8 15 7 28 -1 17 -7 22 -23 20 -25 -4 -26 1 -12 29 7 12 7 19 1 19 -6 0 -8 7 -5 15 4 8 2 15 -4 15 -6 0 -9 8 -8 18 2 9 -2 20 -8 25 -8 5 -6 10 4 17 10 6 11 10 3 10 -8 0 -13 14 -14 33 0 17 -4 41 -9 52 -7 19 -9 18 -19 -9 -6 -16 -9 -37 -6 -47 4 -11 2 -19 -4 -19 -6 0 -8 -6 -5 -14 3 -8 1 -17 -5 -21 -8 -4 -8 -12 0 -27 10 -18 9 -20 -5 -15 -10 4 -15 3 -11 -3 3 -6 1 -10 -6 -10 -8 0 -8 -4 1 -15 13 -15 8 -19 -22 -16 -23 3 -23 -7 0 -32 9 -11 11 -17 4 -13 -7 4 -19 0 -28 -9 -9 -9 -19 -13 -22 -10 -3 3 0 11 6 17 15 15 16 32 2 23 -5 -3 -15 -3 -22 1 -7 5 -5 11 7 21 11 7 13 13 7 13 -10 0 -10 5 -2 20 11 21 11 22 -19 24 -30 2 -36 14 -16 36 16 18 16 20 2 20 -20 0 -23 16 -4 23 8 4 6 6 -4 6 -11 1 -15 9 -14 26 2 14 -1 28 -6 31 -6 3 -5 11 2 20 9 11 9 14 -1 14 -7 0 -10 8 -7 20 3 11 1 20 -5 20 -6 0 -8 7 -5 15 4 8 2 17 -3 20 -6 4 -10 16 -11 28 0 17 -5 12 -18 -18 -10 -22 -16 -46 -13 -52 2 -7 -1 -13 -7 -13 -6 0 -9 -13 -7 -30 2 -16 -1 -30 -6 -30 -6 0 -8 -7 -4 -15 9 -23 -4 -44 -22 -38 -14 5 -14 3 2 -15 20 -23 17 -26 -23 -22 -24 2 -25 2 -7 -26 15 -22 16 -26 3 -21 -26 10 -41 -69 -18 -97 22 -26 -3 -18 -29 9 -13 14 -28 25 -34 25 -7 0 -11 18 -11 43 0 36 -3 42 -22 45 -25 4 -29 12 -12 29 14 14 -11 43 -37 43 -16 0 -16 1 1 20 10 11 13 20 8 20 -17 0 -25 31 -12 46 9 11 8 14 -6 14 -14 0 -15 3 -6 14 9 11 8 22 -3 47 -8 19 -18 43 -22 54 -7 20 -7 20 -11 0 -2 -11 -9 -33 -16 -49 -6 -17 -10 -41 -9 -53 1 -14 -2 -21 -8 -18 -6 3 -10 2 -10 -4 0 -5 6 -12 13 -14 9 -4 9 -8 -2 -15 -8 -6 -10 -15 -6 -22 6 -9 4 -11 -5 -5 -9 6 -10 2 -5 -15 5 -15 4 -20 -4 -16 -7 5 -9 1 -5 -8 4 -11 0 -16 -12 -16 -15 0 -15 -3 5 -24 24 -26 14 -43 -16 -28 -27 14 -46 4 -28 -15 18 -18 20 -37 3 -27 -7 4 -5 -2 5 -13 14 -16 15 -23 6 -29 -7 -4 -15 -2 -17 4 -2 7 -8 9 -14 6 -5 -3 -2 -14 8 -25 20 -22 2 -26 -20 -4 -8 8 -21 15 -28 15 -9 1 -7 5 5 14 22 17 22 26 -2 26 -23 0 -36 16 -21 25 17 10 11 25 -7 18 -11 -4 -14 -3 -9 5 4 7 1 12 -9 12 -12 0 -14 4 -5 19 7 15 6 23 -5 35 -10 10 -12 17 -4 21 6 5 4 12 -8 21 -10 7 -13 14 -6 14 13 0 14 40 1 40 -4 0 -8 9 -8 19 0 11 -4 23 -10 26 -5 3 -10 -3 -10 -14 0 -12 -4 -21 -10 -21 -5 0 -7 -7 -4 -15 4 -8 1 -15 -6 -15 -10 0 -10 -3 0 -15 10 -12 9 -15 -5 -15 -15 0 -15 -2 -4 -16 8 -10 9 -18 2 -22 -5 -4 -9 -17 -8 -30 1 -16 -2 -21 -13 -17 -12 4 -13 3 -2 -10 12 -14 7 -20 -14 -16 -5 1 -1 -10 8 -24 20 -31 16 -41 -11 -27 -22 12 -53 -1 -33 -13 6 -4 9 -13 6 -21 -3 -7 -1 -16 4 -19 20 -13 9 -25 -17 -20 -26 6 -27 5 -10 -9 13 -10 17 -21 12 -35 -8 -26 -30 -27 -44 -3 -9 14 -10 14 -11 2 0 -9 5 -21 10 -26 7 -7 -2 -11 -31 -12 -41 -2 -42 -2 -24 18 11 12 13 20 6 20 -7 0 -10 4 -7 9 4 5 2 11 -3 13 -5 1 -11 10 -13 18 -2 8 -7 18 -13 23 -6 4 -4 11 5 17 12 7 12 10 1 10 -8 0 -11 6 -7 16 4 10 2 13 -6 8 -8 -5 -9 -2 -5 9 3 10 2 17 -3 17 -6 0 -10 7 -10 15 0 25 -14 16 -32 -20 -10 -20 -13 -35 -7 -35 6 0 7 -5 4 -10 -4 -6 -12 -7 -18 -3 -9 5 -9 3 0 -8 7 -9 8 -20 3 -28 -4 -8 -6 -20 -3 -28 3 -9 -6 -15 -27 -20 -29 -5 -30 -7 -14 -16 18 -10 17 -11 -6 -17 -16 -4 -25 -13 -25 -25 0 -12 -8 -21 -20 -23 -16 -3 -17 -1 -5 7 12 9 12 11 1 11 -11 0 -11 3 -1 15 10 13 9 15 -10 15 -19 0 -21 2 -9 16 10 13 10 17 0 24 -9 5 -10 10 -2 14 18 11 13 26 -8 26 -26 0 -35 16 -14 24 15 6 14 9 -7 20 -14 7 -24 18 -22 25 1 7 -2 19 -9 27 -6 7 -8 18 -5 23 4 5 2 13 -4 16 -7 4 -7 11 -2 18 6 8 3 26 -8 49 l-16 38 -15 -37 c-8 -20 -13 -43 -11 -50 2 -7 -3 -13 -10 -13 -9 0 -9 -3 -1 -11 9 -9 8 -15 -2 -26 -8 -7 -11 -21 -8 -30 5 -12 3 -14 -7 -8 -9 6 -11 4 -5 -5 4 -7 2 -15 -4 -20 -9 -5 -9 -11 3 -22 21 -21 11 -28 -32 -21 -35 6 -36 6 -19 -11 19 -19 23 -31 7 -21 -5 3 -10 2 -10 -3 0 -6 7 -13 16 -16 8 -3 12 -11 9 -16 -4 -7 -11 -7 -18 -2 -7 5 -24 9 -39 8 -32 -2 -36 8 -11 23 10 5 15 13 11 17 -4 4 -14 1 -22 -5 -10 -9 -16 -9 -21 -1 -4 6 1 18 11 26 18 13 18 14 -1 7 -20 -6 -20 -6 0 17 l20 23 -33 -5 c-40 -6 -50 7 -26 33 16 18 16 19 -1 19 -14 0 -15 3 -5 15 11 13 10 14 -6 8 -17 -6 -17 -5 -5 10 9 12 10 17 2 17 -7 0 -10 4 -7 9 4 5 0 11 -6 14 -10 3 -10 7 1 20 12 15 11 17 -4 17 -15 0 -16 2 -4 17 8 9 9 14 3 10 -8 -4 -14 6 -18 28 -9 45 -18 44 -33 -2 -8 -27 -8 -42 -1 -50 8 -10 6 -13 -7 -13 -14 0 -15 -3 -5 -15 7 -9 8 -15 2 -15 -16 0 -23 -31 -11 -46 9 -11 8 -14 -5 -14 -10 0 -15 -4 -12 -9 4 -5 -4 -7 -16 -3 -23 5 -23 5 -4 -16 17 -20 18 -22 2 -22 -9 0 -14 5 -11 10 3 6 -5 10 -19 10 -29 0 -44 18 -22 26 9 3 16 10 16 15 0 4 -7 5 -17 2 -11 -4 -14 -3 -9 5 4 7 1 12 -8 12 -19 0 -20 11 -3 29 8 9 8 12 0 7 -13 -7 -28 28 -19 43 4 5 0 12 -6 14 -9 4 -10 8 -2 14 13 9 15 43 3 43 -5 0 -13 15 -18 33 -6 21 -10 25 -10 11 -1 -11 -6 -25 -13 -32 -6 -6 -11 -25 -10 -42 0 -17 -4 -28 -9 -25 -5 4 -9 2 -9 -4 0 -5 6 -11 12 -13 9 -3 8 -10 -5 -22 -15 -15 -15 -21 -5 -34 11 -13 10 -15 -5 -9 -15 6 -17 3 -12 -13 5 -16 3 -19 -12 -13 -15 5 -14 2 5 -19 27 -29 20 -39 -20 -31 -28 6 -30 5 -19 -16 9 -16 9 -21 -1 -21 -8 -1 -7 -5 5 -14 24 -19 21 -29 -6 -22 -17 4 -24 1 -24 -9 0 -7 5 -13 10 -12 5 1 12 -5 15 -13 4 -11 0 -11 -21 3 -17 11 -36 15 -52 11 -29 -7 -32 2 -8 28 15 17 15 18 -1 18 -9 0 -14 5 -11 10 3 6 1 10 -5 10 -6 0 -8 5 -5 11 4 5 -1 19 -11 30 -10 11 -12 19 -6 19 7 0 12 5 12 11 0 5 -4 7 -10 4 -6 -3 -10 5 -10 18 0 14 -6 37 -14 52 l-15 28 -6 -26 c-4 -15 -11 -27 -17 -27 -5 0 -6 -4 -3 -10 3 -5 1 -10 -6 -10 -7 0 -4 -7 7 -15 18 -14 18 -14 0 -15 -15 0 -16 -3 -6 -15 9 -11 9 -15 1 -15 -7 0 -9 -4 -6 -10 3 -5 1 -10 -6 -10 -8 0 -8 -4 1 -15 10 -12 10 -15 -4 -15 -9 0 -16 -4 -16 -10 0 -5 -8 -7 -17 -3 -15 5 -16 3 -5 -8 18 -20 15 -24 -19 -26 -30 -2 -31 -1 -15 16 20 22 20 31 -1 31 -14 0 -14 2 2 20 18 20 17 20 -8 20 -17 0 -27 5 -27 15 0 8 5 15 10 15 6 0 10 4 10 10 0 5 -7 6 -17 3 -11 -4 -14 -3 -9 5 4 7 1 12 -8 12 -19 0 -20 11 -3 29 7 9 7 11 1 8 -17 -10 -27 23 -13 39 9 11 8 14 -5 14 -9 0 -16 5 -16 10 0 6 5 10 10 10 11 0 10 31 -1 40 -3 3 -11 19 -17 35 -9 25 -11 26 -11 8 -1 -12 -6 -25 -12 -28 -6 -4 -8 -13 -5 -21 3 -8 1 -14 -5 -14 -6 0 -7 -5 -3 -11 3 -6 0 -15 -7 -20 -12 -8 -12 -11 1 -20 11 -8 12 -12 2 -16 -6 -2 -10 -9 -6 -14 3 -5 0 -9 -7 -9 -8 0 -7 -5 2 -17 12 -15 12 -16 -2 -11 -13 5 -16 2 -11 -14 3 -14 1 -19 -6 -14 -17 11 -15 -9 3 -24 26 -22 17 -31 -22 -24 -35 7 -37 6 -24 -10 8 -9 11 -19 8 -23 -4 -3 -2 -12 5 -20 16 -20 2 -28 -27 -15 -14 6 -33 9 -42 5 -17 -6 -17 -5 0 14 18 21 12 39 -9 22 -8 -7 -14 -7 -19 1 -4 6 1 18 11 26 17 14 17 15 2 10 -15 -5 -16 -3 -5 14 6 11 16 20 22 20 5 0 3 4 -4 9 -9 6 -22 6 -33 0 -31 -17 -42 1 -17 27 20 21 20 24 5 24 -12 0 -16 5 -12 15 3 8 1 15 -3 15 -5 0 -12 7 -15 16 -3 8 -2 12 4 9 16 -10 12 2 -7 21 -13 13 -14 19 -5 22 6 2 12 8 12 13 0 6 -4 8 -9 4 -5 -3 -9 8 -9 25 1 17 -4 36 -10 42 -7 7 -12 21 -13 33 0 15 -3 13 -11 -10 -6 -16 -14 -32 -17 -35 -11 -9 -12 -40 -1 -40 5 0 10 -4 10 -10 0 -5 -7 -10 -16 -10 -14 0 -15 -2 -3 -17 11 -13 11 -17 1 -20 -6 -3 -10 -9 -6 -14 3 -5 0 -9 -7 -9 -8 0 -8 -4 1 -15 10 -12 9 -15 -5 -15 -11 0 -15 -5 -12 -14 4 -10 1 -13 -9 -9 -16 6 -20 -12 -4 -22 15 -9 2 -25 -21 -25 -23 0 -26 -18 -4 -26 8 -4 15 -11 15 -16 0 -6 -7 -8 -15 -4 -21 8 -19 -21 3 -33 14 -9 12 -10 -13 -11 -22 0 -26 -3 -17 -12 17 -17 15 -28 -5 -21 -15 5 -14 3 2 -10 18 -14 18 -16 3 -17 -22 0 -44 36 -25 43 6 2 8 8 4 13 -5 5 -13 1 -18 -9 -6 -9 -20 -17 -31 -17 -21 0 -21 0 -2 16 10 8 13 13 7 9 -16 -8 -17 17 -2 32 7 7 2 9 -18 5 -27 -5 -28 -4 -10 15 9 11 17 25 17 31 0 7 -7 9 -17 5 -17 -6 -17 -5 0 14 23 26 22 33 -8 33 -25 0 -33 14 -15 25 16 10 12 28 -4 22 -10 -4 -13 -1 -9 9 3 9 -1 14 -13 14 -14 0 -15 3 -6 12 15 15 16 31 0 22 -8 -5 -9 -2 -5 9 3 10 2 17 -4 17 -6 0 -5 8 2 21 7 13 7 19 1 15 -6 -3 -13 -2 -16 3 -4 5 -2 12 3 16 11 6 10 45 -1 45 -4 0 -8 11 -8 25 0 31 -15 33 -25 3z m2220 -428 c3 -5 1 -10 -4 -10 -6 0 -11 5 -11 10 0 6 2 10 4 10 3 0 8 -4 11 -10z m582 -37 c-4 -3 -7 0 -7 7 0 7 3 10 7 7 3 -4 3 -10 0 -14z m-3680 -33 c-1 -11 -5 -20 -10 -20 -5 0 -7 7 -4 14 4 11 1 13 -11 9 -15 -6 -15 -5 -3 10 16 20 30 14 28 -13z"/> <path d="M3023 2023 c4 -3 10 -3 14 0 3 4 0 7 -7 7 -7 0 -10 -3 -7 -7z"/> </g> </svg>