<?xml version="1.0" encoding="UTF-8"?>
<svg version="1.1" xmlns="http://www.w3.org/2000/svg" width="500" height="500">
<path d="M0 0 C2.99342937 1.99770705 5.43687854 4.48582704 8 7 C9.40782023 8.27383734 10.81587227 9.54743142 12.22851562 10.81591797 C17.58591641 15.64548754 22.71507851 20.67058929 27.7824707 25.80175781 C30.41789807 28.45838629 33.0851269 31.01567378 35.9375 33.4375 C39.65957718 36.60010003 43.06865804 40.02970978 46.5 43.5 C49.89005854 46.92845105 53.25194008 50.32260742 56.9375 53.4375 C60.84269979 56.74572658 64.40280926 60.36513741 68 64 C73.34465194 69.41494868 73.34465194 69.41494868 79 74.5 C83.55937735 78.35188776 87.67246864 82.64812208 91.8671875 86.88671875 C94.82940843 89.86800977 97.78707598 92.78563316 101 95.5 C105.55937735 99.35188776 109.67246864 103.64812208 113.8671875 107.88671875 C116.82940843 110.86800977 119.78707598 113.78563316 123 116.5 C127.55937735 120.35188776 131.67246864 124.64812208 135.8671875 128.88671875 C138.82940843 131.86800977 141.78707598 134.78563316 145 137.5 C149.55858949 141.35122216 153.67102171 145.64663131 157.86499023 149.88452148 C161.41457818 153.45698233 165.03157879 156.84604401 168.87890625 160.09765625 C172.47814366 163.32570159 175.82668211 166.8077371 179.22509766 170.24462891 C182.0475639 173.086724 184.87583732 175.84990122 187.9375 178.4375 C191.84269979 181.74572658 195.40280926 185.36513741 199 189 C204.34465194 194.41494868 204.34465194 194.41494868 210 199.5 C214.55255278 203.34612217 218.66165504 207.63415238 222.84741211 211.86914062 C225.99254182 215.03766843 229.15820224 218.10602391 232.5625 221 C241.01351943 228.2903644 241.01351943 228.2903644 242 234.5 C242.31537953 240.01914175 240.52359062 243.24556232 236.9375 247.375 C232.73008138 249.70250817 228.70182588 249.96157642 224 249 C219.32890526 246.35820205 215.80101032 243.01785813 212.125 239.1875 C208.86424713 235.85474155 205.62725962 232.57475972 202.0625 229.5625 C198.34042307 226.39990018 194.93133928 222.97029304 191.5 219.5 C188.08929676 216.05062117 184.70378516 212.63880098 181 209.5 C177.29621434 206.36119859 173.91070855 202.94937324 170.5 199.5 C167.10993882 196.07155172 163.74806018 192.6773928 160.0625 189.5625 C155.48648238 185.686001 151.35013799 181.3747532 147.13525391 177.11572266 C143.58558242 173.54318081 139.96851023 170.15403123 136.12109375 166.90234375 C132.52262539 163.67498815 129.1747647 160.19375027 125.77709961 156.75756836 C122.93342314 153.89409544 120.08116073 151.11115316 117 148.5 C113.29621434 145.36119859 109.91070855 141.94937324 106.5 138.5 C103.10993882 135.07155172 99.74806018 131.6773928 96.0625 128.5625 C91.48648238 124.686001 87.35013799 120.3747532 83.13525391 116.11572266 C79.58558242 112.54318081 75.96851023 109.15403123 72.12109375 105.90234375 C68.52262539 102.67498815 65.1747647 99.19375027 61.77709961 95.75756836 C58.93342314 92.89409544 56.08116073 90.11115316 53 87.5 C49.29621434 84.36119859 45.91070855 80.94937324 42.5 77.5 C39.10993882 74.07155172 35.74806018 70.6773928 32.0625 67.5625 C27.48805692 63.68733484 23.35303081 59.37773454 19.13964844 55.12011719 C15.5555043 51.5128371 11.90439355 48.08081089 8.01953125 44.796875 C3.47415431 40.75263247 -0.73486445 36.33569846 -5 32 C-9.86062305 36.11906646 -14.5986063 40.33410816 -19.25 44.6875 C-19.9004126 45.294729 -20.5508252 45.90195801 -21.22094727 46.52758789 C-26.12393666 51.12681494 -30.87583578 55.85165204 -35.6015625 60.6328125 C-37.61530978 62.62032203 -39.65642893 64.4839334 -41.8125 66.3125 C-45.75401525 69.66888309 -49.36137762 73.32318187 -53 77 C-57.14507609 81.18845164 -61.30916368 85.22670725 -65.8125 89.03125 C-69.65296637 92.48766973 -73.23154622 96.21302595 -76.86499023 99.88452148 C-80.41457818 103.45698233 -84.03157879 106.84604401 -87.87890625 110.09765625 C-90.87139221 112.78152487 -93.67433259 115.64234089 -96.5 118.5 C-99.89006381 121.92844551 -103.25193957 125.32260699 -106.9375 128.4375 C-110.84269979 131.74572658 -114.40280926 135.36513741 -118 139 C-122.1450809 143.18844516 -126.30916362 147.2267072 -130.8125 151.03125 C-133.99820751 153.89838676 -136.98584758 156.95431879 -140 160 C-144.14508331 164.18844192 -148.30916359 168.22670717 -152.8125 172.03125 C-155.99820751 174.89838676 -158.98584758 177.95431879 -162 181 C-166.14508331 185.18844192 -170.30916359 189.22670717 -174.8125 193.03125 C-177.99820768 195.89838692 -180.98584545 198.95432076 -184 202 C-191.28104289 209.35711491 -191.28104289 209.35711491 -194.9375 212.4375 C-199.74738935 216.49941519 -204.07886712 221.05528083 -208.50488281 225.52441406 C-212.20371577 229.24545112 -215.94957616 232.80784029 -219.96875 236.18359375 C-223.37525327 239.22979379 -226.53727578 242.53167045 -229.7019043 245.8269043 C-233.23882151 249.44863684 -236.37519937 252.5816724 -241.5 253.3984375 C-250.06741573 253.31811798 -250.06741573 253.31811798 -254 250 C-257.49676008 244.75485988 -257.1743787 239.0615398 -256 233 C-253.14586071 228.45247173 -249.47589595 225.09025676 -245.5 221.5625 C-244.50465876 220.62900237 -243.51244273 219.6921609 -242.5234375 218.75195312 C-238.34123151 214.80758167 -234.02970454 211.01273762 -229.6875 207.24609375 C-226.1227454 204.15252659 -222.79721022 200.87454025 -219.5 197.5 C-216.1122034 194.06962004 -212.74777911 190.67715525 -209.0625 187.5625 C-205.15730044 184.25427363 -201.59718832 180.63486507 -198 177 C-193.83353306 172.78989371 -189.64714598 168.7275879 -185.12109375 164.90234375 C-182.12860779 162.21847513 -179.32566741 159.35765911 -176.5 156.5 C-173.10993619 153.07155449 -169.74806043 149.67739301 -166.0625 146.5625 C-162.15730044 143.25427363 -158.59718832 139.63486507 -155 136 C-150.83353306 131.78989371 -146.64714598 127.7275879 -142.12109375 123.90234375 C-138.52262539 120.67498815 -135.1747647 117.19375027 -131.77709961 113.75756836 C-128.35944185 110.31611835 -124.85721791 107.07391349 -121.15625 103.9375 C-118.15385296 101.23969397 -115.33739418 98.36955962 -112.5 95.5 C-109.10993882 92.07155172 -105.74806018 88.6773928 -102.0625 85.5625 C-98.15730044 82.25427363 -94.59718832 78.63486507 -91 75 C-86.83353306 70.78989371 -82.64714598 66.7275879 -78.12109375 62.90234375 C-75.12860779 60.21847513 -72.32566741 57.35765911 -69.5 54.5 C-66.10993619 51.07155449 -62.74806043 47.67739301 -59.0625 44.5625 C-55.15730044 41.25427363 -51.59718832 37.63486507 -48 34 C-43.83750305 29.79390528 -39.65689633 25.7330943 -35.1328125 21.9140625 C-31.48575946 18.64106618 -28.07974904 15.11929296 -24.65405273 11.61694336 C-21.58448965 8.49876834 -18.42453085 5.73345436 -15 3 C-14.67 2.34 -14.34 1.68 -14 1 C-9.31117163 -1.17287168 -4.90504552 -1.70650823 0 0 Z " fill="#000000" transform="translate(256,122)"/>
</svg>
